# xmcd CD database file
# Copyright (C) 1996 Ti Kan
#
# Track frame offsets:
# 	150
# 	10937
# 	23415
# 	38025
# 	52870
# 	70702
# 	96477
# 	106892
# 	123327
# 	137600
# 	149525
# 	173302
#
# Disc length: 2576 seconds
#
# Revision: 1
# Processed by: cddbd v1.4b41PL1 Copyright (c) Steve Scherf et al.
# Submitted via: DiscPlay 3.4.1
#
DISCID=900a0e0c
DTITLE=Chris Gaffney - Mi Vida Loca
DYEAR=1900
DGENRE=
TTITLE0=Silent Partner
TTITLE1=Artesia
TTITLE2=Get off My Back Lucy
TTITLE3=Six Nights a Week
TTITLE4='68
TTITLE5=Waltz for Minnie
TTITLE6=They Made a Mistake
TTITLE7=Quiet Desperation
TTITLE8=Psychotic Girlfriend
TTITLE9=Mi Vida Loca
TTITLE10=So Tired to Be Me
TTITLE11=I Never Grew Up
EXTD=
EXTT0=
EXTT1=
EXTT2=
EXTT3=
EXTT4=
EXTT5=
EXTT6=
EXTT7=
EXTT8=
EXTT9=
EXTT10=
EXTT11=
PLAYORDER=
